<svg xmlns="http://www.w3.org/2000/svg" xmlns:xlink="http://www.w3.org/1999/xlink" width="460" zoomAndPan="magnify" viewBox="0 0 345 126.749998" height="169" preserveAspectRatio="xMidYMid meet" version="1.0"><defs><g/><clipPath id="44cda0e792"><path d="M 61 80 L 102 80 L 102 115 L 61 115 Z M 61 80 " clip-rule="nonzero"/></clipPath><clipPath id="00b7adc503"><path d="M 0.339844 54.097656 L 72.609375 11.605469 L 115.101562 83.875 L 42.832031 126.367188 Z M 0.339844 54.097656 " clip-rule="nonzero"/></clipPath><clipPath id="e5af5330fc"><path d="M 0.339844 54.097656 L 72.609375 11.605469 L 115.101562 83.875 L 42.832031 126.367188 Z M 0.339844 54.097656 " clip-rule="nonzero"/></clipPath><clipPath id="70c68eac2b"><path d="M 49 80 L 86 80 L 86 114 L 49 114 Z M 49 80 " clip-rule="nonzero"/></clipPath><clipPath id="036110d45d"><path d="M 0.339844 54.097656 L 72.609375 11.605469 L 115.101562 83.875 L 42.832031 126.367188 Z M 0.339844 54.097656 " clip-rule="nonzero"/></clipPath><clipPath id="a38ba45710"><path d="M 0.339844 54.097656 L 72.609375 11.605469 L 115.101562 83.875 L 42.832031 126.367188 Z M 0.339844 54.097656 " clip-rule="nonzero"/></clipPath><clipPath id="239304446b"><path d="M 12 72 L 47 72 L 47 114 L 12 114 Z M 12 72 " clip-rule="nonzero"/></clipPath><clipPath id="0b5d19a1c1"><path d="M 0.339844 54.097656 L 72.609375 11.605469 L 115.101562 83.875 L 42.832031 126.367188 Z M 0.339844 54.097656 " clip-rule="nonzero"/></clipPath><clipPath id="e287cd7b59"><path d="M 0.339844 54.097656 L 72.609375 11.605469 L 115.101562 83.875 L 42.832031 126.367188 Z M 0.339844 54.097656 " clip-rule="nonzero"/></clipPath><clipPath id="36c9139dac"><path d="M 13 60 L 47 60 L 47 98 L 13 98 Z M 13 60 " clip-rule="nonzero"/></clipPath><clipPath id="16e4e455aa"><path d="M 0.339844 54.097656 L 72.609375 11.605469 L 115.101562 83.875 L 42.832031 126.367188 Z M 0.339844 54.097656 " clip-rule="nonzero"/></clipPath><clipPath id="2be3a8af28"><path d="M 0.339844 54.097656 L 72.609375 11.605469 L 115.101562 83.875 L 42.832031 126.367188 Z M 0.339844 54.097656 " clip-rule="nonzero"/></clipPath><clipPath id="6fe5c66350"><path d="M 13 23 L 55 23 L 55 58 L 13 58 Z M 13 23 " clip-rule="nonzero"/></clipPath><clipPath id="5be4dcc1e4"><path d="M 0.339844 54.097656 L 72.609375 11.605469 L 115.101562 83.875 L 42.832031 126.367188 Z M 0.339844 54.097656 " clip-rule="nonzero"/></clipPath><clipPath id="a9efac2988"><path d="M 0.339844 54.097656 L 72.609375 11.605469 L 115.101562 83.875 L 42.832031 126.367188 Z M 0.339844 54.097656 " clip-rule="nonzero"/></clipPath><clipPath id="c05575f8d3"><path d="M 29 24 L 67 24 L 67 58 L 29 58 Z M 29 24 " clip-rule="nonzero"/></clipPath><clipPath id="57c561a8f1"><path d="M 0.339844 54.097656 L 72.609375 11.605469 L 115.101562 83.875 L 42.832031 126.367188 Z M 0.339844 54.097656 " clip-rule="nonzero"/></clipPath><clipPath id="f481ce5149"><path d="M 0.339844 54.097656 L 72.609375 11.605469 L 115.101562 83.875 L 42.832031 126.367188 Z M 0.339844 54.097656 " clip-rule="nonzero"/></clipPath><clipPath id="8585daf733"><path d="M 69 24 L 104 24 L 104 66 L 69 66 Z M 69 24 " clip-rule="nonzero"/></clipPath><clipPath id="4343417ac5"><path d="M 0.339844 54.097656 L 72.609375 11.605469 L 115.101562 83.875 L 42.832031 126.367188 Z M 0.339844 54.097656 " clip-rule="nonzero"/></clipPath><clipPath id="3cb95970ea"><path d="M 0.339844 54.097656 L 72.609375 11.605469 L 115.101562 83.875 L 42.832031 126.367188 Z M 0.339844 54.097656 " clip-rule="nonzero"/></clipPath><clipPath id="5bc9f04649"><path d="M 68 40 L 103 40 L 103 78 L 68 78 Z M 68 40 " clip-rule="nonzero"/></clipPath><clipPath id="310e6163b9"><path d="M 0.339844 54.097656 L 72.609375 11.605469 L 115.101562 83.875 L 42.832031 126.367188 Z M 0.339844 54.097656 " clip-rule="nonzero"/></clipPath><clipPath id="4cf1a4227a"><path d="M 0.339844 54.097656 L 72.609375 11.605469 L 115.101562 83.875 L 42.832031 126.367188 Z M 0.339844 54.097656 " clip-rule="nonzero"/></clipPath></defs><g clip-path="url(#44cda0e792)"><g clip-path="url(#00b7adc503)"><g clip-path="url(#e5af5330fc)"><path fill="#ff970d" d="M 101.914062 80.441406 L 92.980469 80.328125 L 61.1875 114.46875 L 62.984375 114.535156 L 99.871094 92.894531 Z M 101.914062 80.441406 " fill-opacity="1" fill-rule="nonzero"/></g></g></g><g clip-path="url(#70c68eac2b)"><g clip-path="url(#036110d45d)"><g clip-path="url(#a38ba45710)"><path fill="#ff970d" d="M 85.921875 80.253906 L 71.253906 80.085938 L 49.425781 103.105469 L 49.308594 113.148438 L 58.828125 113.613281 L 62.15625 109.984375 L 61.730469 97.648438 Z M 85.921875 80.253906 " fill-opacity="1" fill-rule="nonzero"/></g></g></g><g clip-path="url(#239304446b)"><g clip-path="url(#0b5d19a1c1)"><g clip-path="url(#e287cd7b59)"><path fill="#ff970d" d="M 46.3125 113.152344 L 46.421875 104.21875 L 12.285156 72.425781 L 12.21875 74.21875 L 33.859375 111.109375 Z M 46.3125 113.152344 " fill-opacity="1" fill-rule="nonzero"/></g></g></g><g clip-path="url(#36c9139dac)"><g clip-path="url(#16e4e455aa)"><g clip-path="url(#2be3a8af28)"><path fill="#ff970d" d="M 46.5 97.160156 L 46.667969 82.492188 L 23.648438 60.664062 L 13.605469 60.546875 L 13.140625 70.066406 L 16.773438 73.394531 L 29.105469 72.972656 Z M 46.5 97.160156 " fill-opacity="1" fill-rule="nonzero"/></g></g></g><g clip-path="url(#6fe5c66350)"><g clip-path="url(#5be4dcc1e4)"><g clip-path="url(#a9efac2988)"><path fill="#ff970d" d="M 13.605469 57.550781 L 22.535156 57.664062 L 54.328125 23.523438 L 52.535156 23.457031 L 15.644531 45.097656 Z M 13.605469 57.550781 " fill-opacity="1" fill-rule="nonzero"/></g></g></g><g clip-path="url(#c05575f8d3)"><g clip-path="url(#57c561a8f1)"><g clip-path="url(#f481ce5149)"><path fill="#ff970d" d="M 29.597656 57.738281 L 44.261719 57.90625 L 66.089844 34.886719 L 66.207031 24.84375 L 56.691406 24.378906 L 53.359375 28.011719 L 53.78125 40.34375 Z M 29.597656 57.738281 " fill-opacity="1" fill-rule="nonzero"/></g></g></g><g clip-path="url(#8585daf733)"><g clip-path="url(#4343417ac5)"><g clip-path="url(#3cb95970ea)"><path fill="#ff970d" d="M 69.203125 24.84375 L 69.089844 33.773438 L 103.230469 65.566406 L 103.296875 63.773438 L 81.65625 26.882812 Z M 69.203125 24.84375 " fill-opacity="1" fill-rule="nonzero"/></g></g></g><g clip-path="url(#5bc9f04649)"><g clip-path="url(#310e6163b9)"><g clip-path="url(#4cf1a4227a)"><path fill="#ff970d" d="M 69.015625 40.835938 L 68.847656 55.5 L 91.867188 77.328125 L 101.910156 77.445312 L 102.375 67.929688 L 98.742188 64.597656 L 86.40625 65.019531 Z M 69.015625 40.835938 " fill-opacity="1" fill-rule="nonzero"/></g></g></g><g fill="#000000" fill-opacity="1"><g transform="translate(156.048395, 76.896342)"><g><path d="M 1.109375 0 L 1.109375 -7.59375 L 2 -7.59375 L 4.984375 -3.09375 L 7.9375 -7.59375 L 8.828125 -7.59375 L 8.828125 0 L 7.875 0 L 7.875 -5.796875 L 5.359375 -2.015625 L 4.578125 -2.015625 L 2.0625 -5.8125 L 2.0625 0 Z M 1.109375 0 "/></g></g></g><g fill="#000000" fill-opacity="1"><g transform="translate(167.594957, 76.896342)"><g><path d="M 0.1875 0 L 3.3125 -7.59375 L 4.203125 -7.59375 L 7.3125 0 L 6.3125 0 L 5.59375 -1.71875 L 1.890625 -1.71875 L 1.203125 0 Z M 2.265625 -2.609375 L 5.234375 -2.609375 L 3.75 -6.25 Z M 2.265625 -2.609375 "/></g></g></g><g fill="#000000" fill-opacity="1"><g transform="translate(176.715566, 76.896342)"><g><path d="M 1.109375 0 L 1.109375 -7.59375 L 4 -7.59375 C 4.53125 -7.59375 4.988281 -7.492188 5.375 -7.296875 C 5.769531 -7.097656 6.070312 -6.816406 6.28125 -6.453125 C 6.5 -6.085938 6.609375 -5.65625 6.609375 -5.15625 C 6.609375 -4.539062 6.445312 -4.03125 6.125 -3.625 C 5.8125 -3.226562 5.378906 -2.957031 4.828125 -2.8125 L 6.734375 0 L 5.578125 0 L 3.734375 -2.71875 L 2.0625 -2.71875 L 2.0625 0 Z M 2.0625 -3.625 L 3.890625 -3.625 C 4.453125 -3.625 4.882812 -3.753906 5.1875 -4.015625 C 5.488281 -4.285156 5.640625 -4.664062 5.640625 -5.15625 C 5.640625 -5.632812 5.488281 -6.007812 5.1875 -6.28125 C 4.882812 -6.550781 4.453125 -6.6875 3.890625 -6.6875 L 2.0625 -6.6875 Z M 2.0625 -3.625 "/></g></g></g><g fill="#000000" fill-opacity="1"><g transform="translate(185.717049, 76.896342)"><g><path d="M 1.109375 0 L 1.109375 -7.59375 L 2.0625 -7.59375 L 2.0625 -4.328125 L 3.140625 -4.328125 C 3.660156 -4.328125 4.050781 -4.414062 4.3125 -4.59375 C 4.570312 -4.78125 4.773438 -5.082031 4.921875 -5.5 L 5.703125 -7.59375 L 6.71875 -7.59375 L 5.78125 -5.125 C 5.664062 -4.832031 5.53125 -4.578125 5.375 -4.359375 C 5.226562 -4.148438 5.046875 -3.972656 4.828125 -3.828125 L 7 0 L 5.90625 0 L 3.9375 -3.484375 C 3.695312 -3.441406 3.429688 -3.421875 3.140625 -3.421875 L 2.0625 -3.421875 L 2.0625 0 Z M 1.109375 0 "/></g></g></g><g fill="#000000" fill-opacity="1"><g transform="translate(194.751026, 76.896342)"><g><path d="M 1.109375 0 L 1.109375 -7.59375 L 5.71875 -7.59375 L 5.71875 -6.703125 L 2.0625 -6.703125 L 2.0625 -4.3125 L 5.4375 -4.3125 L 5.4375 -3.421875 L 2.0625 -3.421875 L 2.0625 -0.890625 L 5.828125 -0.890625 L 5.828125 0 Z M 1.109375 0 "/></g></g></g><g fill="#000000" fill-opacity="1"><g transform="translate(202.907758, 76.896342)"><g><path d="M 2.9375 0 L 2.9375 -6.6875 L 0.375 -6.6875 L 0.375 -7.59375 L 6.453125 -7.59375 L 6.453125 -6.6875 L 3.890625 -6.6875 L 3.890625 0 Z M 2.9375 0 "/></g></g></g><g fill="#000000" fill-opacity="1"><g transform="translate(211.356905, 76.896342)"><g><path d="M 1.109375 0 L 1.109375 -7.59375 L 2.0625 -7.59375 L 2.0625 0 Z M 1.109375 0 "/></g></g></g><g fill="#000000" fill-opacity="1"><g transform="translate(216.145464, 76.896342)"><g><path d="M 1.109375 0 L 1.109375 -7.59375 L 2 -7.59375 L 6.203125 -1.640625 L 6.203125 -7.59375 L 7.140625 -7.59375 L 7.140625 0 L 6.25 0 L 2.046875 -5.9375 L 2.046875 0 Z M 1.109375 0 "/></g></g></g><g fill="#000000" fill-opacity="1"><g transform="translate(226.002525, 76.896342)"><g><path d="M 4.484375 0.140625 C 3.929688 0.140625 3.421875 0.046875 2.953125 -0.140625 C 2.484375 -0.335938 2.070312 -0.613281 1.71875 -0.96875 C 1.375 -1.320312 1.101562 -1.738281 0.90625 -2.21875 C 0.71875 -2.695312 0.625 -3.222656 0.625 -3.796875 C 0.625 -4.367188 0.71875 -4.890625 0.90625 -5.359375 C 1.09375 -5.835938 1.359375 -6.253906 1.703125 -6.609375 C 2.054688 -6.960938 2.460938 -7.238281 2.921875 -7.4375 C 3.390625 -7.632812 3.90625 -7.734375 4.46875 -7.734375 C 5.039062 -7.734375 5.570312 -7.628906 6.0625 -7.421875 C 6.5625 -7.210938 6.988281 -6.914062 7.34375 -6.53125 C 7.707031 -6.15625 7.96875 -5.722656 8.125 -5.234375 L 7.078125 -5.234375 C 6.835938 -5.722656 6.492188 -6.101562 6.046875 -6.375 C 5.597656 -6.644531 5.082031 -6.78125 4.5 -6.78125 C 3.9375 -6.78125 3.4375 -6.648438 3 -6.390625 C 2.5625 -6.140625 2.21875 -5.789062 1.96875 -5.34375 C 1.726562 -4.894531 1.609375 -4.378906 1.609375 -3.796875 C 1.609375 -3.210938 1.734375 -2.695312 1.984375 -2.25 C 2.234375 -1.800781 2.578125 -1.445312 3.015625 -1.1875 C 3.453125 -0.9375 3.953125 -0.8125 4.515625 -0.8125 C 5.023438 -0.8125 5.476562 -0.910156 5.875 -1.109375 C 6.269531 -1.316406 6.59375 -1.597656 6.84375 -1.953125 C 7.09375 -2.316406 7.25 -2.734375 7.3125 -3.203125 L 4.234375 -3.203125 L 4.234375 -4.125 L 8.34375 -4.125 C 8.363281 -3.289062 8.210938 -2.550781 7.890625 -1.90625 C 7.566406 -1.269531 7.113281 -0.769531 6.53125 -0.40625 C 5.945312 -0.0390625 5.265625 0.140625 4.484375 0.140625 Z M 4.484375 0.140625 "/></g></g></g><g fill="#000000" fill-opacity="1"><g transform="translate(236.563542, 76.896342)"><g/></g></g><g fill="#000000" fill-opacity="1"><g transform="translate(240.87557, 76.896342)"><g><path d="M 2.9375 0 L 2.9375 -6.6875 L 0.375 -6.6875 L 0.375 -7.59375 L 6.453125 -7.59375 L 6.453125 -6.6875 L 3.890625 -6.6875 L 3.890625 0 Z M 2.9375 0 "/></g></g></g><g fill="#000000" fill-opacity="1"><g transform="translate(249.324717, 76.896342)"><g><path d="M 0.1875 0 L 3.3125 -7.59375 L 4.203125 -7.59375 L 7.3125 0 L 6.3125 0 L 5.59375 -1.71875 L 1.890625 -1.71875 L 1.203125 0 Z M 2.265625 -2.609375 L 5.234375 -2.609375 L 3.75 -6.25 Z M 2.265625 -2.609375 "/></g></g></g><g fill="#000000" fill-opacity="1"><g transform="translate(258.445327, 76.896342)"><g><path d="M 1.109375 0 L 1.109375 -7.59375 L 2 -7.59375 L 6.203125 -1.640625 L 6.203125 -7.59375 L 7.140625 -7.59375 L 7.140625 0 L 6.25 0 L 2.046875 -5.9375 L 2.046875 0 Z M 1.109375 0 "/></g></g></g><g fill="#000000" fill-opacity="1"><g transform="translate(268.302388, 76.896342)"><g><path d="M 1.109375 0 L 1.109375 -7.59375 L 3.671875 -7.59375 C 4.242188 -7.59375 4.738281 -7.488281 5.15625 -7.28125 C 5.582031 -7.070312 5.910156 -6.773438 6.140625 -6.390625 C 6.378906 -6.015625 6.5 -5.566406 6.5 -5.046875 C 6.5 -4.523438 6.378906 -4.070312 6.140625 -3.6875 C 5.910156 -3.3125 5.582031 -3.019531 5.15625 -2.8125 C 4.738281 -2.601562 4.242188 -2.5 3.671875 -2.5 L 2.0625 -2.5 L 2.0625 0 Z M 2.0625 -3.390625 L 3.65625 -3.390625 C 4.894531 -3.390625 5.515625 -3.9375 5.515625 -5.03125 C 5.515625 -6.132812 4.894531 -6.6875 3.65625 -6.6875 L 2.0625 -6.6875 Z M 2.0625 -3.390625 "/></g></g></g><g fill="#000000" fill-opacity="1"><g transform="translate(276.849006, 76.896342)"><g><path d="M 0.1875 0 L 3.3125 -7.59375 L 4.203125 -7.59375 L 7.3125 0 L 6.3125 0 L 5.59375 -1.71875 L 1.890625 -1.71875 L 1.203125 0 Z M 2.265625 -2.609375 L 5.234375 -2.609375 L 3.75 -6.25 Z M 2.265625 -2.609375 "/></g></g></g><g fill="#000000" fill-opacity="1"><g transform="translate(156.048395, 91.866813)"><g><path d="M 1.109375 0 L 1.109375 -7.59375 L 3.671875 -7.59375 C 4.242188 -7.59375 4.738281 -7.488281 5.15625 -7.28125 C 5.582031 -7.070312 5.910156 -6.773438 6.140625 -6.390625 C 6.378906 -6.015625 6.5 -5.566406 6.5 -5.046875 C 6.5 -4.523438 6.378906 -4.070312 6.140625 -3.6875 C 5.910156 -3.3125 5.582031 -3.019531 5.15625 -2.8125 C 4.738281 -2.601562 4.242188 -2.5 3.671875 -2.5 L 2.0625 -2.5 L 2.0625 0 Z M 2.0625 -3.390625 L 3.65625 -3.390625 C 4.894531 -3.390625 5.515625 -3.9375 5.515625 -5.03125 C 5.515625 -6.132812 4.894531 -6.6875 3.65625 -6.6875 L 2.0625 -6.6875 Z M 2.0625 -3.390625 "/></g></g></g><g fill="#000000" fill-opacity="1"><g transform="translate(164.595014, 91.866813)"><g><path d="M 3.953125 0.125 C 3.023438 0.125 2.300781 -0.15625 1.78125 -0.71875 C 1.269531 -1.289062 1.015625 -2.082031 1.015625 -3.09375 L 1.015625 -7.59375 L 1.96875 -7.59375 L 1.96875 -3.15625 C 1.96875 -2.382812 2.132812 -1.796875 2.46875 -1.390625 C 2.8125 -0.992188 3.304688 -0.796875 3.953125 -0.796875 C 5.273438 -0.796875 5.9375 -1.582031 5.9375 -3.15625 L 5.9375 -7.59375 L 6.890625 -7.59375 L 6.890625 -3.09375 C 6.890625 -2.082031 6.628906 -1.289062 6.109375 -0.71875 C 5.585938 -0.15625 4.867188 0.125 3.953125 0.125 Z M 3.953125 0.125 "/></g></g></g><g fill="#000000" fill-opacity="1"><g transform="translate(174.116338, 91.866813)"><g><path d="M 3.625 0.140625 C 3.019531 0.140625 2.492188 0.0351562 2.046875 -0.171875 C 1.609375 -0.378906 1.265625 -0.664062 1.015625 -1.03125 C 0.773438 -1.40625 0.65625 -1.835938 0.65625 -2.328125 L 1.609375 -2.328125 C 1.617188 -1.847656 1.8125 -1.46875 2.1875 -1.1875 C 2.5625 -0.90625 3.039062 -0.765625 3.625 -0.765625 C 4.164062 -0.765625 4.59375 -0.867188 4.90625 -1.078125 C 5.21875 -1.296875 5.375 -1.59375 5.375 -1.96875 C 5.375 -2.320312 5.222656 -2.601562 4.921875 -2.8125 C 4.617188 -3.03125 4.125 -3.21875 3.4375 -3.375 C 2.5 -3.59375 1.8125 -3.878906 1.375 -4.234375 C 0.945312 -4.585938 0.734375 -5.054688 0.734375 -5.640625 C 0.734375 -6.285156 0.976562 -6.796875 1.46875 -7.171875 C 1.957031 -7.546875 2.617188 -7.734375 3.453125 -7.734375 C 4.304688 -7.734375 4.976562 -7.519531 5.46875 -7.09375 C 5.96875 -6.664062 6.21875 -6.082031 6.21875 -5.34375 L 5.28125 -5.34375 C 5.269531 -5.800781 5.097656 -6.160156 4.765625 -6.421875 C 4.441406 -6.691406 4.003906 -6.828125 3.453125 -6.828125 C 2.910156 -6.828125 2.484375 -6.71875 2.171875 -6.5 C 1.867188 -6.289062 1.71875 -6.003906 1.71875 -5.640625 C 1.71875 -5.328125 1.859375 -5.0625 2.140625 -4.84375 C 2.421875 -4.632812 2.929688 -4.441406 3.671875 -4.265625 C 4.640625 -4.023438 5.328125 -3.722656 5.734375 -3.359375 C 6.148438 -3.003906 6.359375 -2.550781 6.359375 -2 C 6.359375 -1.34375 6.109375 -0.820312 5.609375 -0.4375 C 5.117188 -0.0507812 4.457031 0.140625 3.625 0.140625 Z M 3.625 0.140625 "/></g></g></g><g fill="#000000" fill-opacity="1"><g transform="translate(182.749601, 91.866813)"><g><path d="M 1.109375 0 L 1.109375 -7.59375 L 2.0625 -7.59375 L 2.0625 0 Z M 1.109375 0 "/></g></g></g><g fill="#000000" fill-opacity="1"><g transform="translate(187.53816, 91.866813)"><g><path d="M 1.109375 0 L 1.109375 -7.59375 L 2 -7.59375 L 6.203125 -1.640625 L 6.203125 -7.59375 L 7.140625 -7.59375 L 7.140625 0 L 6.25 0 L 2.046875 -5.9375 L 2.046875 0 Z M 1.109375 0 "/></g></g></g><g fill="#000000" fill-opacity="1"><g transform="translate(197.39522, 91.866813)"><g><path d="M 4.484375 0.140625 C 3.929688 0.140625 3.421875 0.046875 2.953125 -0.140625 C 2.484375 -0.335938 2.070312 -0.613281 1.71875 -0.96875 C 1.375 -1.320312 1.101562 -1.738281 0.90625 -2.21875 C 0.71875 -2.695312 0.625 -3.222656 0.625 -3.796875 C 0.625 -4.367188 0.71875 -4.890625 0.90625 -5.359375 C 1.09375 -5.835938 1.359375 -6.253906 1.703125 -6.609375 C 2.054688 -6.960938 2.460938 -7.238281 2.921875 -7.4375 C 3.390625 -7.632812 3.90625 -7.734375 4.46875 -7.734375 C 5.039062 -7.734375 5.570312 -7.628906 6.0625 -7.421875 C 6.5625 -7.210938 6.988281 -6.914062 7.34375 -6.53125 C 7.707031 -6.15625 7.96875 -5.722656 8.125 -5.234375 L 7.078125 -5.234375 C 6.835938 -5.722656 6.492188 -6.101562 6.046875 -6.375 C 5.597656 -6.644531 5.082031 -6.78125 4.5 -6.78125 C 3.9375 -6.78125 3.4375 -6.648438 3 -6.390625 C 2.5625 -6.140625 2.21875 -5.789062 1.96875 -5.34375 C 1.726562 -4.894531 1.609375 -4.378906 1.609375 -3.796875 C 1.609375 -3.210938 1.734375 -2.695312 1.984375 -2.25 C 2.234375 -1.800781 2.578125 -1.445312 3.015625 -1.1875 C 3.453125 -0.9375 3.953125 -0.8125 4.515625 -0.8125 C 5.023438 -0.8125 5.476562 -0.910156 5.875 -1.109375 C 6.269531 -1.316406 6.59375 -1.597656 6.84375 -1.953125 C 7.09375 -2.316406 7.25 -2.734375 7.3125 -3.203125 L 4.234375 -3.203125 L 4.234375 -4.125 L 8.34375 -4.125 C 8.363281 -3.289062 8.210938 -2.550781 7.890625 -1.90625 C 7.566406 -1.269531 7.113281 -0.769531 6.53125 -0.40625 C 5.945312 -0.0390625 5.265625 0.140625 4.484375 0.140625 Z M 4.484375 0.140625 "/></g></g></g><g fill="#000000" fill-opacity="1"><g transform="translate(114.47291, 58.637132)"><g><path d="M 5.765625 -24.078125 L 16.953125 -24.078125 C 19.234375 -24.078125 20.929688 -23.617188 22.046875 -22.703125 C 23.171875 -21.785156 23.734375 -20.640625 23.734375 -19.265625 C 23.734375 -16.429688 22.171875 -14.316406 19.046875 -12.921875 C 21.191406 -12.203125 22.265625 -10.742188 22.265625 -8.546875 C 22.265625 -6.484375 21.394531 -4.539062 19.65625 -2.71875 C 17.925781 -0.90625 15.320312 0 11.84375 0 L 0.65625 0 Z M 6.375 -4.15625 L 12.796875 -4.15625 C 14.347656 -4.15625 15.472656 -4.554688 16.171875 -5.359375 C 16.867188 -6.160156 17.21875 -7.082031 17.21875 -8.125 C 17.21875 -9 16.941406 -9.628906 16.390625 -10.015625 C 15.835938 -10.398438 14.925781 -10.59375 13.65625 -10.59375 L 7.75 -10.59375 Z M 8.59375 -14.65625 L 14.65625 -14.65625 C 16.125 -14.65625 17.164062 -14.992188 17.78125 -15.671875 C 18.394531 -16.347656 18.703125 -17.109375 18.703125 -17.953125 C 18.703125 -18.566406 18.476562 -19.050781 18.03125 -19.40625 C 17.582031 -19.757812 16.640625 -19.9375 15.203125 -19.9375 L 9.734375 -19.9375 Z M 8.59375 -14.65625 "/></g></g></g><g fill="#000000" fill-opacity="1"><g transform="translate(138.115249, 58.637132)"><g><path d="M 4.296875 -17.859375 L 8.796875 -17.859375 L 8.140625 -14.765625 L 8.203125 -14.765625 C 9.773438 -17.128906 11.59375 -18.3125 13.65625 -18.3125 C 14.050781 -18.3125 14.414062 -18.289062 14.75 -18.25 L 13.734375 -13.484375 C 13.410156 -13.523438 12.976562 -13.546875 12.4375 -13.546875 C 9.53125 -13.546875 7.773438 -12.125 7.171875 -9.28125 L 5.1875 0 L 0.484375 0 Z M 4.296875 -17.859375 "/></g></g></g><g fill="#000000" fill-opacity="1"><g transform="translate(151.016933, 58.637132)"><g><path d="M 2.390625 -12.078125 C 3.503906 -16.234375 6.5625 -18.3125 11.5625 -18.3125 C 13.519531 -18.3125 15.117188 -17.960938 16.359375 -17.265625 C 17.609375 -16.566406 18.234375 -15.59375 18.234375 -14.34375 C 18.234375 -14.050781 18.191406 -13.71875 18.109375 -13.34375 L 15.96875 -3.09375 C 15.894531 -2.75 15.859375 -2.332031 15.859375 -1.84375 C 15.859375 -1.195312 16.070312 -0.816406 16.5 -0.703125 L 16.34375 0 L 11.34375 0 C 11.25 -0.570312 11.234375 -1.273438 11.296875 -2.109375 C 9.578125 -0.390625 7.441406 0.46875 4.890625 0.46875 C 3.390625 0.46875 2.21875 0.09375 1.375 -0.65625 C 0.53125 -1.40625 0.109375 -2.488281 0.109375 -3.90625 C 0.109375 -5.613281 0.695312 -7.039062 1.875 -8.1875 C 3.050781 -9.34375 4.5625 -10.046875 6.40625 -10.296875 L 11.421875 -10.96875 C 12.765625 -11.144531 13.4375 -11.789062 13.4375 -12.90625 C 13.4375 -13.488281 13.195312 -13.914062 12.71875 -14.1875 C 12.25 -14.46875 11.632812 -14.609375 10.875 -14.609375 C 8.75 -14.609375 7.4375 -13.765625 6.9375 -12.078125 Z M 12.5625 -8.65625 C 11.875 -8.21875 10.40625 -7.847656 8.15625 -7.546875 C 6.03125 -7.265625 4.96875 -6.289062 4.96875 -4.625 C 4.96875 -4.0625 5.144531 -3.628906 5.5 -3.328125 C 5.863281 -3.035156 6.375 -2.890625 7.03125 -2.890625 C 8.132812 -2.890625 9.195312 -3.21875 10.21875 -3.875 C 11.25 -4.539062 11.859375 -5.304688 12.046875 -6.171875 Z M 12.5625 -8.65625 "/></g></g></g><g fill="#000000" fill-opacity="1"><g transform="translate(170.173123, 58.637132)"><g><path d="M 16.625 0 L 11.921875 0 L 14.28125 -11.09375 C 14.375 -11.519531 14.421875 -11.90625 14.421875 -12.25 C 14.421875 -12.957031 14.234375 -13.484375 13.859375 -13.828125 C 13.484375 -14.179688 12.921875 -14.359375 12.171875 -14.359375 C 11.003906 -14.359375 9.96875 -13.941406 9.0625 -13.109375 C 8.15625 -12.285156 7.539062 -11.101562 7.21875 -9.5625 L 5.1875 0 L 0.484375 0 L 4.296875 -17.859375 L 8.796875 -17.859375 L 8.234375 -15.234375 L 8.3125 -15.234375 C 10.101562 -17.285156 12.128906 -18.3125 14.390625 -18.3125 C 15.953125 -18.3125 17.175781 -17.910156 18.0625 -17.109375 C 18.957031 -16.304688 19.40625 -15.207031 19.40625 -13.8125 C 19.40625 -13.375 19.328125 -12.75 19.171875 -11.9375 Z M 16.625 0 "/></g></g></g><g fill="#000000" fill-opacity="1"><g transform="translate(190.639137, 58.637132)"><g><path d="M 16.75 0 L 12.171875 0 L 12.640625 -2.25 L 12.578125 -2.25 C 11.097656 -0.4375 9.21875 0.46875 6.9375 0.46875 C 5.144531 0.46875 3.707031 -0.164062 2.625 -1.4375 C 1.539062 -2.707031 1 -4.414062 1 -6.5625 C 1 -9.644531 1.910156 -12.375 3.734375 -14.75 C 5.554688 -17.125 7.804688 -18.3125 10.484375 -18.3125 C 12.773438 -18.3125 14.378906 -17.359375 15.296875 -15.453125 L 15.359375 -15.453125 L 17.1875 -24.078125 L 21.875 -24.078125 Z M 5.921875 -6.984375 C 5.921875 -5.898438 6.195312 -5.03125 6.75 -4.375 C 7.3125 -3.726562 8.070312 -3.40625 9.03125 -3.40625 C 10.5625 -3.40625 11.816406 -4.125 12.796875 -5.5625 C 13.773438 -7 14.265625 -8.59375 14.265625 -10.34375 C 14.265625 -11.632812 14.019531 -12.609375 13.53125 -13.265625 C 13.039062 -13.921875 12.289062 -14.25 11.28125 -14.25 C 9.707031 -14.25 8.421875 -13.503906 7.421875 -12.015625 C 6.421875 -10.535156 5.921875 -8.859375 5.921875 -6.984375 Z M 5.921875 -6.984375 "/></g></g></g><g fill="#0c35ff" fill-opacity="1"><g transform="translate(211.488583, 58.637132)"><g><path d="M 5.6875 0 L 0.65625 0 L 5.765625 -24.078125 L 22.90625 -24.078125 L 22 -19.8125 L 9.890625 -19.8125 L 8.75 -14.390625 L 19.34375 -14.390625 L 18.421875 -10.125 L 7.828125 -10.125 Z M 5.6875 0 "/></g></g></g><g fill="#0c35ff" fill-opacity="1"><g transform="translate(230.840971, 58.637132)"><g><path d="M 11.53125 -14.359375 C 9.875 -14.359375 8.523438 -13.628906 7.484375 -12.171875 C 6.441406 -10.710938 5.921875 -9.109375 5.921875 -7.359375 C 5.921875 -6.234375 6.21875 -5.304688 6.8125 -4.578125 C 7.40625 -3.847656 8.226562 -3.484375 9.28125 -3.484375 C 10.875 -3.484375 12.203125 -4.179688 13.265625 -5.578125 C 14.335938 -6.972656 14.875 -8.582031 14.875 -10.40625 C 14.875 -11.570312 14.570312 -12.519531 13.96875 -13.25 C 13.363281 -13.988281 12.550781 -14.359375 11.53125 -14.359375 Z M 12.109375 -18.3125 C 14.398438 -18.3125 16.242188 -17.613281 17.640625 -16.21875 C 19.035156 -14.820312 19.734375 -13.0625 19.734375 -10.9375 C 19.734375 -7.738281 18.664062 -5.035156 16.53125 -2.828125 C 14.40625 -0.628906 11.765625 0.46875 8.609375 0.46875 C 6.328125 0.46875 4.5 -0.226562 3.125 -1.625 C 1.75 -3.03125 1.0625 -4.773438 1.0625 -6.859375 C 1.0625 -10.015625 2.109375 -12.710938 4.203125 -14.953125 C 6.296875 -17.191406 8.929688 -18.3125 12.109375 -18.3125 Z M 12.109375 -18.3125 "/></g></g></g><g fill="#0c35ff" fill-opacity="1"><g transform="translate(251.437967, 58.637132)"><g><path d="M 4.296875 -17.859375 L 8.796875 -17.859375 L 8.140625 -14.765625 L 8.203125 -14.765625 C 9.773438 -17.128906 11.59375 -18.3125 13.65625 -18.3125 C 14.050781 -18.3125 14.414062 -18.289062 14.75 -18.25 L 13.734375 -13.484375 C 13.410156 -13.523438 12.976562 -13.546875 12.4375 -13.546875 C 9.53125 -13.546875 7.773438 -12.125 7.171875 -9.28125 L 5.1875 0 L 0.484375 0 Z M 4.296875 -17.859375 "/></g></g></g><g fill="#0c35ff" fill-opacity="1"><g transform="translate(264.339652, 58.637132)"><g><path d="M 13.515625 -11.46875 L 13.515625 -11.734375 C 13.515625 -13.484375 12.65625 -14.359375 10.9375 -14.359375 C 9.425781 -14.359375 8.195312 -13.570312 7.25 -12 C 6.3125 -10.425781 5.84375 -8.703125 5.84375 -6.828125 C 5.84375 -5.742188 6.078125 -4.898438 6.546875 -4.296875 C 7.015625 -3.691406 7.671875 -3.390625 8.515625 -3.390625 C 10.242188 -3.390625 11.546875 -4.425781 12.421875 -6.5 L 17.1875 -6.5 C 15.457031 -1.832031 12.375 0.5 7.9375 0.5 C 5.851562 0.5 4.160156 -0.113281 2.859375 -1.34375 C 1.554688 -2.570312 0.90625 -4.175781 0.90625 -6.15625 C 0.90625 -9.320312 1.929688 -12.140625 3.984375 -14.609375 C 6.035156 -17.078125 8.617188 -18.3125 11.734375 -18.3125 C 13.609375 -18.3125 15.179688 -17.804688 16.453125 -16.796875 C 17.734375 -15.785156 18.375 -14.445312 18.375 -12.78125 C 18.375 -12.375 18.332031 -11.9375 18.25 -11.46875 Z M 13.515625 -11.46875 "/></g></g></g><g fill="#0c35ff" fill-opacity="1"><g transform="translate(283.053781, 58.637132)"><g><path d="M 17.359375 -5.21875 C 15.597656 -1.425781 12.476562 0.46875 8 0.46875 C 5.882812 0.46875 4.171875 -0.125 2.859375 -1.3125 C 1.546875 -2.507812 0.890625 -4.175781 0.890625 -6.3125 C 0.890625 -9.507812 1.914062 -12.304688 3.96875 -14.703125 C 6.019531 -17.109375 8.613281 -18.3125 11.75 -18.3125 C 13.882812 -18.3125 15.566406 -17.679688 16.796875 -16.421875 C 18.023438 -15.160156 18.640625 -13.515625 18.640625 -11.484375 C 18.640625 -10.304688 18.445312 -9.03125 18.0625 -7.65625 L 5.65625 -7.65625 C 5.625 -7.269531 5.609375 -6.96875 5.609375 -6.75 C 5.609375 -4.445312 6.65625 -3.296875 8.75 -3.296875 C 10.519531 -3.296875 11.78125 -3.9375 12.53125 -5.21875 Z M 13.859375 -10.703125 C 13.910156 -11.097656 13.9375 -11.421875 13.9375 -11.671875 C 13.9375 -12.597656 13.691406 -13.289062 13.203125 -13.75 C 12.710938 -14.21875 12.007812 -14.453125 11.09375 -14.453125 C 8.96875 -14.453125 7.394531 -13.203125 6.375 -10.703125 Z M 13.859375 -10.703125 "/></g></g></g><g fill="#000000" fill-opacity="1"><g transform="translate(114.47291, 85.583981)"><g><path d="M 3.921875 0 L -1.390625 0 L 12.296875 -24.078125 L 18.109375 -24.078125 L 21.484375 0 L 16.015625 0 L 15.53125 -4.96875 L 6.640625 -4.96875 Z M 8.859375 -9.125 L 15 -9.125 L 14.03125 -18.65625 L 13.96875 -18.65625 Z M 8.859375 -9.125 "/></g></g></g><g fill="#000000" fill-opacity="1"><g transform="translate(138.164373, 85.583981)"><g><path d="M 5.6875 0 L 0.65625 0 L 5.765625 -24.078125 L 10.796875 -24.078125 Z M 5.6875 0 "/></g></g></g></svg>