<svg xmlns="http://www.w3.org/2000/svg" xmlns:xlink="http://www.w3.org/1999/xlink" width="460" zoomAndPan="magnify" viewBox="0 0 345 125.999998" height="168" preserveAspectRatio="xMidYMid meet" version="1.0"><defs><g/><clipPath id="3fa8c121d4"><path d="M 60 79 L 102 79 L 102 115 L 60 115 Z M 60 79 " clip-rule="nonzero"/></clipPath><clipPath id="b2cd0c805f"><path d="M 0 53.453125 L 72.414062 10.878906 L 114.988281 83.292969 L 42.574219 125.867188 Z M 0 53.453125 " clip-rule="nonzero"/></clipPath><clipPath id="e5938ed8ac"><path d="M 0 53.453125 L 72.414062 10.878906 L 114.988281 83.292969 L 42.574219 125.867188 Z M 0 53.453125 " clip-rule="nonzero"/></clipPath><clipPath id="5a4401d8f9"><path d="M 49 79 L 86 79 L 86 114 L 49 114 Z M 49 79 " clip-rule="nonzero"/></clipPath><clipPath id="4a1b47a3fe"><path d="M 0 53.453125 L 72.414062 10.878906 L 114.988281 83.292969 L 42.574219 125.867188 Z M 0 53.453125 " clip-rule="nonzero"/></clipPath><clipPath id="3973a0f6d7"><path d="M 0 53.453125 L 72.414062 10.878906 L 114.988281 83.292969 L 42.574219 125.867188 Z M 0 53.453125 " clip-rule="nonzero"/></clipPath><clipPath id="0ce1c06610"><path d="M 11 71 L 47 71 L 47 113 L 11 113 Z M 11 71 " clip-rule="nonzero"/></clipPath><clipPath id="db5cf4e009"><path d="M 0 53.453125 L 72.414062 10.878906 L 114.988281 83.292969 L 42.574219 125.867188 Z M 0 53.453125 " clip-rule="nonzero"/></clipPath><clipPath id="40f26aea0e"><path d="M 0 53.453125 L 72.414062 10.878906 L 114.988281 83.292969 L 42.574219 125.867188 Z M 0 53.453125 " clip-rule="nonzero"/></clipPath><clipPath id="e662989b1f"><path d="M 12 59 L 47 59 L 47 97 L 12 97 Z M 12 59 " clip-rule="nonzero"/></clipPath><clipPath id="1dc23682b2"><path d="M 0 53.453125 L 72.414062 10.878906 L 114.988281 83.292969 L 42.574219 125.867188 Z M 0 53.453125 " clip-rule="nonzero"/></clipPath><clipPath id="884cdbd5a8"><path d="M 0 53.453125 L 72.414062 10.878906 L 114.988281 83.292969 L 42.574219 125.867188 Z M 0 53.453125 " clip-rule="nonzero"/></clipPath><clipPath id="721e10fc91"><path d="M 13 22 L 55 22 L 55 58 L 13 58 Z M 13 22 " clip-rule="nonzero"/></clipPath><clipPath id="3cc040ec29"><path d="M 0 53.453125 L 72.414062 10.878906 L 114.988281 83.292969 L 42.574219 125.867188 Z M 0 53.453125 " clip-rule="nonzero"/></clipPath><clipPath id="07ec559ada"><path d="M 0 53.453125 L 72.414062 10.878906 L 114.988281 83.292969 L 42.574219 125.867188 Z M 0 53.453125 " clip-rule="nonzero"/></clipPath><clipPath id="8801bfdaec"><path d="M 29 23 L 66 23 L 66 58 L 29 58 Z M 29 23 " clip-rule="nonzero"/></clipPath><clipPath id="e4b13160c3"><path d="M 0 53.453125 L 72.414062 10.878906 L 114.988281 83.292969 L 42.574219 125.867188 Z M 0 53.453125 " clip-rule="nonzero"/></clipPath><clipPath id="17479ee611"><path d="M 0 53.453125 L 72.414062 10.878906 L 114.988281 83.292969 L 42.574219 125.867188 Z M 0 53.453125 " clip-rule="nonzero"/></clipPath><clipPath id="2f245313da"><path d="M 68 24 L 104 24 L 104 65 L 68 65 Z M 68 24 " clip-rule="nonzero"/></clipPath><clipPath id="1b253e233f"><path d="M 0 53.453125 L 72.414062 10.878906 L 114.988281 83.292969 L 42.574219 125.867188 Z M 0 53.453125 " clip-rule="nonzero"/></clipPath><clipPath id="b8d2097d90"><path d="M 0 53.453125 L 72.414062 10.878906 L 114.988281 83.292969 L 42.574219 125.867188 Z M 0 53.453125 " clip-rule="nonzero"/></clipPath><clipPath id="cd966518cc"><path d="M 68 40 L 103 40 L 103 77 L 68 77 Z M 68 40 " clip-rule="nonzero"/></clipPath><clipPath id="5ff9657ff0"><path d="M 0 53.453125 L 72.414062 10.878906 L 114.988281 83.292969 L 42.574219 125.867188 Z M 0 53.453125 " clip-rule="nonzero"/></clipPath><clipPath id="6f3a40e10f"><path d="M 0 53.453125 L 72.414062 10.878906 L 114.988281 83.292969 L 42.574219 125.867188 Z M 0 53.453125 " clip-rule="nonzero"/></clipPath><clipPath id="89e95b68e3"><path d="M 0.558594 41 L 24 41 L 24 66 L 0.558594 66 Z M 0.558594 41 " clip-rule="nonzero"/></clipPath><clipPath id="51bb7345f1"><rect x="0" width="192" y="0" height="76"/></clipPath></defs><g clip-path="url(#3fa8c121d4)"><g clip-path="url(#b2cd0c805f)"><g clip-path="url(#e5938ed8ac)"><path fill="#ffffff" d="M 101.773438 79.851562 L 92.820312 79.738281 L 60.96875 113.945312 L 62.765625 114.011719 L 99.726562 92.328125 Z M 101.773438 79.851562 " fill-opacity="1" fill-rule="nonzero"/></g></g></g><g clip-path="url(#5a4401d8f9)"><g clip-path="url(#4a1b47a3fe)"><g clip-path="url(#3973a0f6d7)"><path fill="#ffffff" d="M 85.75 79.664062 L 71.054688 79.496094 L 49.183594 102.558594 L 49.066406 112.621094 L 58.601562 113.085938 L 61.9375 109.449219 L 61.515625 97.089844 Z M 85.75 79.664062 " fill-opacity="1" fill-rule="nonzero"/></g></g></g><g clip-path="url(#0ce1c06610)"><g clip-path="url(#db5cf4e009)"><g clip-path="url(#40f26aea0e)"><path fill="#ffffff" d="M 46.0625 112.625 L 46.175781 103.671875 L 11.96875 71.820312 L 11.90625 73.617188 L 33.585938 110.578125 Z M 46.0625 112.625 " fill-opacity="1" fill-rule="nonzero"/></g></g></g><g clip-path="url(#e662989b1f)"><g clip-path="url(#1dc23682b2)"><g clip-path="url(#884cdbd5a8)"><path fill="#ffffff" d="M 46.253906 96.601562 L 46.421875 81.90625 L 23.355469 60.03125 L 13.292969 59.917969 L 12.828125 69.453125 L 16.464844 72.789062 L 28.824219 72.363281 Z M 46.253906 96.601562 " fill-opacity="1" fill-rule="nonzero"/></g></g></g><g clip-path="url(#721e10fc91)"><g clip-path="url(#3cc040ec29)"><g clip-path="url(#07ec559ada)"><path fill="#ffffff" d="M 13.289062 56.914062 L 22.238281 57.027344 L 54.09375 22.820312 L 52.296875 22.753906 L 15.335938 44.4375 Z M 13.289062 56.914062 " fill-opacity="1" fill-rule="nonzero"/></g></g></g><g clip-path="url(#8801bfdaec)"><g clip-path="url(#e4b13160c3)"><g clip-path="url(#17479ee611)"><path fill="#ffffff" d="M 29.316406 57.101562 L 44.007812 57.269531 L 65.878906 34.207031 L 65.996094 24.140625 L 56.460938 23.679688 L 53.125 27.316406 L 53.546875 39.675781 Z M 29.316406 57.101562 " fill-opacity="1" fill-rule="nonzero"/></g></g></g><g clip-path="url(#2f245313da)"><g clip-path="url(#1b253e233f)"><g clip-path="url(#b8d2097d90)"><path fill="#ffffff" d="M 69 24.140625 L 68.886719 33.089844 L 103.09375 64.945312 L 103.160156 63.148438 L 81.476562 26.1875 Z M 69 24.140625 " fill-opacity="1" fill-rule="nonzero"/></g></g></g><g clip-path="url(#cd966518cc)"><g clip-path="url(#5ff9657ff0)"><g clip-path="url(#6f3a40e10f)"><path fill="#ffffff" d="M 68.8125 40.167969 L 68.644531 54.859375 L 91.707031 76.730469 L 101.773438 76.847656 L 102.238281 67.3125 L 98.597656 63.976562 L 86.238281 64.398438 Z M 68.8125 40.167969 " fill-opacity="1" fill-rule="nonzero"/></g></g></g><g fill="#ffffff" fill-opacity="1"><g transform="translate(156.015947, 76.298033)"><g><path d="M 1.109375 0 L 1.109375 -7.609375 L 2 -7.609375 L 4.984375 -3.09375 L 7.953125 -7.609375 L 8.84375 -7.609375 L 8.84375 0 L 7.890625 0 L 7.890625 -5.8125 L 5.359375 -2.015625 L 4.578125 -2.015625 L 2.0625 -5.828125 L 2.0625 0 Z M 1.109375 0 "/></g></g></g><g fill="#ffffff" fill-opacity="1"><g transform="translate(167.585282, 76.298033)"><g><path d="M 0.1875 0 L 3.3125 -7.609375 L 4.203125 -7.609375 L 7.328125 0 L 6.3125 0 L 5.609375 -1.734375 L 1.90625 -1.734375 L 1.203125 0 Z M 2.265625 -2.609375 L 5.25 -2.609375 L 3.75 -6.265625 Z M 2.265625 -2.609375 "/></g></g></g><g fill="#ffffff" fill-opacity="1"><g transform="translate(176.723881, 76.298033)"><g><path d="M 1.109375 0 L 1.109375 -7.609375 L 4 -7.609375 C 4.53125 -7.609375 4.988281 -7.503906 5.375 -7.296875 C 5.769531 -7.097656 6.078125 -6.816406 6.296875 -6.453125 C 6.515625 -6.097656 6.625 -5.664062 6.625 -5.15625 C 6.625 -4.539062 6.460938 -4.03125 6.140625 -3.625 C 5.828125 -3.226562 5.390625 -2.960938 4.828125 -2.828125 L 6.75 0 L 5.59375 0 L 3.734375 -2.71875 L 2.0625 -2.71875 L 2.0625 0 Z M 2.0625 -3.640625 L 3.90625 -3.640625 C 4.457031 -3.640625 4.882812 -3.769531 5.1875 -4.03125 C 5.488281 -4.300781 5.640625 -4.675781 5.640625 -5.15625 C 5.640625 -5.644531 5.488281 -6.019531 5.1875 -6.28125 C 4.882812 -6.550781 4.457031 -6.6875 3.90625 -6.6875 L 2.0625 -6.6875 Z M 2.0625 -3.640625 "/></g></g></g><g fill="#ffffff" fill-opacity="1"><g transform="translate(185.743118, 76.298033)"><g><path d="M 1.109375 0 L 1.109375 -7.609375 L 2.0625 -7.609375 L 2.0625 -4.328125 L 3.15625 -4.328125 C 3.664062 -4.328125 4.050781 -4.421875 4.3125 -4.609375 C 4.570312 -4.796875 4.78125 -5.09375 4.9375 -5.5 L 5.71875 -7.609375 L 6.71875 -7.609375 L 5.78125 -5.125 C 5.675781 -4.832031 5.546875 -4.578125 5.390625 -4.359375 C 5.234375 -4.148438 5.046875 -3.972656 4.828125 -3.828125 L 7.015625 0 L 5.90625 0 L 3.9375 -3.484375 C 3.695312 -3.441406 3.4375 -3.421875 3.15625 -3.421875 L 2.0625 -3.421875 L 2.0625 0 Z M 1.109375 0 "/></g></g></g><g fill="#ffffff" fill-opacity="1"><g transform="translate(194.794913, 76.298033)"><g><path d="M 1.109375 0 L 1.109375 -7.609375 L 5.71875 -7.609375 L 5.71875 -6.71875 L 2.0625 -6.71875 L 2.0625 -4.3125 L 5.453125 -4.3125 L 5.453125 -3.4375 L 2.0625 -3.4375 L 2.0625 -0.890625 L 5.84375 -0.890625 L 5.84375 0 Z M 1.109375 0 "/></g></g></g><g fill="#ffffff" fill-opacity="1"><g transform="translate(202.967734, 76.298033)"><g><path d="M 2.9375 0 L 2.9375 -6.6875 L 0.375 -6.6875 L 0.375 -7.609375 L 6.46875 -7.609375 L 6.46875 -6.6875 L 3.90625 -6.6875 L 3.90625 0 Z M 2.9375 0 "/></g></g></g><g fill="#ffffff" fill-opacity="1"><g transform="translate(211.433546, 76.298033)"><g><path d="M 1.109375 0 L 1.109375 -7.609375 L 2.0625 -7.609375 L 2.0625 0 Z M 1.109375 0 "/></g></g></g><g fill="#ffffff" fill-opacity="1"><g transform="translate(216.23155, 76.298033)"><g><path d="M 1.109375 0 L 1.109375 -7.609375 L 2.015625 -7.609375 L 6.21875 -1.65625 L 6.21875 -7.609375 L 7.140625 -7.609375 L 7.140625 0 L 6.25 0 L 2.046875 -5.953125 L 2.046875 0 Z M 1.109375 0 "/></g></g></g><g fill="#ffffff" fill-opacity="1"><g transform="translate(226.108052, 76.298033)"><g><path d="M 4.5 0.140625 C 3.9375 0.140625 3.421875 0.046875 2.953125 -0.140625 C 2.484375 -0.335938 2.070312 -0.613281 1.71875 -0.96875 C 1.375 -1.320312 1.101562 -1.738281 0.90625 -2.21875 C 0.71875 -2.695312 0.625 -3.222656 0.625 -3.796875 C 0.625 -4.367188 0.71875 -4.894531 0.90625 -5.375 C 1.09375 -5.851562 1.359375 -6.269531 1.703125 -6.625 C 2.054688 -6.976562 2.46875 -7.253906 2.9375 -7.453125 C 3.40625 -7.648438 3.914062 -7.75 4.46875 -7.75 C 5.050781 -7.75 5.585938 -7.640625 6.078125 -7.421875 C 6.566406 -7.210938 6.988281 -6.921875 7.34375 -6.546875 C 7.707031 -6.171875 7.972656 -5.734375 8.140625 -5.234375 L 7.09375 -5.234375 C 6.851562 -5.722656 6.507812 -6.101562 6.0625 -6.375 C 5.613281 -6.644531 5.09375 -6.78125 4.5 -6.78125 C 3.9375 -6.78125 3.4375 -6.65625 3 -6.40625 C 2.5625 -6.15625 2.21875 -5.804688 1.96875 -5.359375 C 1.726562 -4.910156 1.609375 -4.390625 1.609375 -3.796875 C 1.609375 -3.210938 1.734375 -2.695312 1.984375 -2.25 C 2.234375 -1.800781 2.578125 -1.445312 3.015625 -1.1875 C 3.453125 -0.9375 3.953125 -0.8125 4.515625 -0.8125 C 5.023438 -0.8125 5.476562 -0.910156 5.875 -1.109375 C 6.28125 -1.316406 6.609375 -1.597656 6.859375 -1.953125 C 7.109375 -2.316406 7.265625 -2.738281 7.328125 -3.21875 L 4.234375 -3.21875 L 4.234375 -4.125 L 8.359375 -4.125 C 8.378906 -3.289062 8.226562 -2.550781 7.90625 -1.90625 C 7.582031 -1.269531 7.128906 -0.769531 6.546875 -0.40625 C 5.960938 -0.0390625 5.28125 0.140625 4.5 0.140625 Z M 4.5 0.140625 "/></g></g></g><g fill="#ffffff" fill-opacity="1"><g transform="translate(236.6899, 76.298033)"><g/></g></g><g fill="#ffffff" fill-opacity="1"><g transform="translate(241.010433, 76.298033)"><g><path d="M 2.9375 0 L 2.9375 -6.6875 L 0.375 -6.6875 L 0.375 -7.609375 L 6.46875 -7.609375 L 6.46875 -6.6875 L 3.90625 -6.6875 L 3.90625 0 Z M 2.9375 0 "/></g></g></g><g fill="#ffffff" fill-opacity="1"><g transform="translate(249.476246, 76.298033)"><g><path d="M 0.1875 0 L 3.3125 -7.609375 L 4.203125 -7.609375 L 7.328125 0 L 6.3125 0 L 5.609375 -1.734375 L 1.90625 -1.734375 L 1.203125 0 Z M 2.265625 -2.609375 L 5.25 -2.609375 L 3.75 -6.265625 Z M 2.265625 -2.609375 "/></g></g></g><g fill="#ffffff" fill-opacity="1"><g transform="translate(258.614844, 76.298033)"><g><path d="M 1.109375 0 L 1.109375 -7.609375 L 2.015625 -7.609375 L 6.21875 -1.65625 L 6.21875 -7.609375 L 7.140625 -7.609375 L 7.140625 0 L 6.25 0 L 2.046875 -5.953125 L 2.046875 0 Z M 1.109375 0 "/></g></g></g><g fill="#ffffff" fill-opacity="1"><g transform="translate(268.491347, 76.298033)"><g><path d="M 1.109375 0 L 1.109375 -7.609375 L 3.6875 -7.609375 C 4.257812 -7.609375 4.753906 -7.5 5.171875 -7.28125 C 5.597656 -7.070312 5.925781 -6.773438 6.15625 -6.390625 C 6.382812 -6.015625 6.5 -5.566406 6.5 -5.046875 C 6.5 -4.523438 6.382812 -4.070312 6.15625 -3.6875 C 5.925781 -3.3125 5.597656 -3.019531 5.171875 -2.8125 C 4.753906 -2.601562 4.257812 -2.5 3.6875 -2.5 L 2.0625 -2.5 L 2.0625 0 Z M 2.0625 -3.390625 L 3.65625 -3.390625 C 4.90625 -3.390625 5.53125 -3.9375 5.53125 -5.03125 C 5.53125 -6.132812 4.90625 -6.6875 3.65625 -6.6875 L 2.0625 -6.6875 Z M 2.0625 -3.390625 "/></g></g></g><g fill="#ffffff" fill-opacity="1"><g transform="translate(277.054823, 76.298033)"><g><path d="M 0.1875 0 L 3.3125 -7.609375 L 4.203125 -7.609375 L 7.328125 0 L 6.3125 0 L 5.609375 -1.734375 L 1.90625 -1.734375 L 1.203125 0 Z M 2.265625 -2.609375 L 5.25 -2.609375 L 3.75 -6.265625 Z M 2.265625 -2.609375 "/></g></g></g><g fill="#ffffff" fill-opacity="1"><g transform="translate(156.015947, 91.298032)"><g><path d="M 1.109375 0 L 1.109375 -7.609375 L 3.6875 -7.609375 C 4.257812 -7.609375 4.753906 -7.5 5.171875 -7.28125 C 5.597656 -7.070312 5.925781 -6.773438 6.15625 -6.390625 C 6.382812 -6.015625 6.5 -5.566406 6.5 -5.046875 C 6.5 -4.523438 6.382812 -4.070312 6.15625 -3.6875 C 5.925781 -3.3125 5.597656 -3.019531 5.171875 -2.8125 C 4.753906 -2.601562 4.257812 -2.5 3.6875 -2.5 L 2.0625 -2.5 L 2.0625 0 Z M 2.0625 -3.390625 L 3.65625 -3.390625 C 4.90625 -3.390625 5.53125 -3.9375 5.53125 -5.03125 C 5.53125 -6.132812 4.90625 -6.6875 3.65625 -6.6875 L 2.0625 -6.6875 Z M 2.0625 -3.390625 "/></g></g></g><g fill="#ffffff" fill-opacity="1"><g transform="translate(164.579423, 91.298032)"><g><path d="M 3.953125 0.125 C 3.035156 0.125 2.316406 -0.15625 1.796875 -0.71875 C 1.273438 -1.289062 1.015625 -2.082031 1.015625 -3.09375 L 1.015625 -7.609375 L 1.96875 -7.609375 L 1.96875 -3.15625 C 1.96875 -2.382812 2.132812 -1.796875 2.46875 -1.390625 C 2.8125 -0.992188 3.304688 -0.796875 3.953125 -0.796875 C 5.273438 -0.796875 5.9375 -1.582031 5.9375 -3.15625 L 5.9375 -7.609375 L 6.890625 -7.609375 L 6.890625 -3.09375 C 6.890625 -2.082031 6.628906 -1.289062 6.109375 -0.71875 C 5.585938 -0.15625 4.867188 0.125 3.953125 0.125 Z M 3.953125 0.125 "/></g></g></g><g fill="#ffffff" fill-opacity="1"><g transform="translate(174.119526, 91.298032)"><g><path d="M 3.640625 0.140625 C 3.023438 0.140625 2.492188 0.0351562 2.046875 -0.171875 C 1.609375 -0.378906 1.265625 -0.664062 1.015625 -1.03125 C 0.773438 -1.40625 0.65625 -1.835938 0.65625 -2.328125 L 1.609375 -2.328125 C 1.617188 -1.847656 1.8125 -1.46875 2.1875 -1.1875 C 2.5625 -0.90625 3.046875 -0.765625 3.640625 -0.765625 C 4.171875 -0.765625 4.59375 -0.867188 4.90625 -1.078125 C 5.226562 -1.296875 5.390625 -1.59375 5.390625 -1.96875 C 5.390625 -2.320312 5.234375 -2.601562 4.921875 -2.8125 C 4.617188 -3.03125 4.125 -3.21875 3.4375 -3.375 C 2.507812 -3.601562 1.828125 -3.890625 1.390625 -4.234375 C 0.953125 -4.585938 0.734375 -5.054688 0.734375 -5.640625 C 0.734375 -6.285156 0.976562 -6.796875 1.46875 -7.171875 C 1.957031 -7.554688 2.617188 -7.75 3.453125 -7.75 C 4.304688 -7.75 4.976562 -7.535156 5.46875 -7.109375 C 5.96875 -6.679688 6.222656 -6.097656 6.234375 -5.359375 L 5.28125 -5.359375 C 5.28125 -5.804688 5.113281 -6.160156 4.78125 -6.421875 C 4.457031 -6.691406 4.015625 -6.828125 3.453125 -6.828125 C 2.910156 -6.828125 2.484375 -6.71875 2.171875 -6.5 C 1.867188 -6.289062 1.71875 -6.003906 1.71875 -5.640625 C 1.71875 -5.335938 1.859375 -5.078125 2.140625 -4.859375 C 2.429688 -4.648438 2.945312 -4.453125 3.6875 -4.265625 C 4.65625 -4.023438 5.34375 -3.722656 5.75 -3.359375 C 6.164062 -3.003906 6.375 -2.550781 6.375 -2 C 6.375 -1.34375 6.125 -0.820312 5.625 -0.4375 C 5.132812 -0.0507812 4.472656 0.140625 3.640625 0.140625 Z M 3.640625 0.140625 "/></g></g></g><g fill="#ffffff" fill-opacity="1"><g transform="translate(182.769817, 91.298032)"><g><path d="M 1.109375 0 L 1.109375 -7.609375 L 2.0625 -7.609375 L 2.0625 0 Z M 1.109375 0 "/></g></g></g><g fill="#ffffff" fill-opacity="1"><g transform="translate(187.567821, 91.298032)"><g><path d="M 1.109375 0 L 1.109375 -7.609375 L 2.015625 -7.609375 L 6.21875 -1.65625 L 6.21875 -7.609375 L 7.140625 -7.609375 L 7.140625 0 L 6.25 0 L 2.046875 -5.953125 L 2.046875 0 Z M 1.109375 0 "/></g></g></g><g fill="#ffffff" fill-opacity="1"><g transform="translate(197.444323, 91.298032)"><g><path d="M 4.5 0.140625 C 3.9375 0.140625 3.421875 0.046875 2.953125 -0.140625 C 2.484375 -0.335938 2.070312 -0.613281 1.71875 -0.96875 C 1.375 -1.320312 1.101562 -1.738281 0.90625 -2.21875 C 0.71875 -2.695312 0.625 -3.222656 0.625 -3.796875 C 0.625 -4.367188 0.71875 -4.894531 0.90625 -5.375 C 1.09375 -5.851562 1.359375 -6.269531 1.703125 -6.625 C 2.054688 -6.976562 2.46875 -7.253906 2.9375 -7.453125 C 3.40625 -7.648438 3.914062 -7.75 4.46875 -7.75 C 5.050781 -7.75 5.585938 -7.640625 6.078125 -7.421875 C 6.566406 -7.210938 6.988281 -6.921875 7.34375 -6.546875 C 7.707031 -6.171875 7.972656 -5.734375 8.140625 -5.234375 L 7.09375 -5.234375 C 6.851562 -5.722656 6.507812 -6.101562 6.0625 -6.375 C 5.613281 -6.644531 5.09375 -6.78125 4.5 -6.78125 C 3.9375 -6.78125 3.4375 -6.65625 3 -6.40625 C 2.5625 -6.15625 2.21875 -5.804688 1.96875 -5.359375 C 1.726562 -4.910156 1.609375 -4.390625 1.609375 -3.796875 C 1.609375 -3.210938 1.734375 -2.695312 1.984375 -2.25 C 2.234375 -1.800781 2.578125 -1.445312 3.015625 -1.1875 C 3.453125 -0.9375 3.953125 -0.8125 4.515625 -0.8125 C 5.023438 -0.8125 5.476562 -0.910156 5.875 -1.109375 C 6.28125 -1.316406 6.609375 -1.597656 6.859375 -1.953125 C 7.109375 -2.316406 7.265625 -2.738281 7.328125 -3.21875 L 4.234375 -3.21875 L 4.234375 -4.125 L 8.359375 -4.125 C 8.378906 -3.289062 8.226562 -2.550781 7.90625 -1.90625 C 7.582031 -1.269531 7.128906 -0.769531 6.546875 -0.40625 C 5.960938 -0.0390625 5.28125 0.140625 4.5 0.140625 Z M 4.5 0.140625 "/></g></g></g><g transform="matrix(1, 0, 0, 1, 112, 19)"><g clip-path="url(#51bb7345f1)"><g fill="#ffffff" fill-opacity="1"><g transform="translate(2.358458, 38.964706)"><g><path d="M 5.78125 -24.125 L 16.984375 -24.125 C 19.273438 -24.125 20.976562 -23.660156 22.09375 -22.734375 C 23.21875 -21.816406 23.78125 -20.671875 23.78125 -19.296875 C 23.78125 -16.460938 22.210938 -14.347656 19.078125 -12.953125 C 21.222656 -12.222656 22.296875 -10.757812 22.296875 -8.5625 C 22.296875 -6.5 21.425781 -4.554688 19.6875 -2.734375 C 17.957031 -0.910156 15.347656 0 11.859375 0 L 0.65625 0 Z M 6.390625 -4.171875 L 12.8125 -4.171875 C 14.363281 -4.171875 15.488281 -4.570312 16.1875 -5.375 C 16.894531 -6.175781 17.25 -7.097656 17.25 -8.140625 C 17.25 -9.015625 16.972656 -9.644531 16.421875 -10.03125 C 15.867188 -10.425781 14.957031 -10.625 13.6875 -10.625 L 7.765625 -10.625 Z M 8.609375 -14.6875 L 14.6875 -14.6875 C 16.15625 -14.6875 17.195312 -15.023438 17.8125 -15.703125 C 18.425781 -16.378906 18.734375 -17.140625 18.734375 -17.984375 C 18.734375 -18.597656 18.507812 -19.082031 18.0625 -19.4375 C 17.613281 -19.789062 16.671875 -19.96875 15.234375 -19.96875 L 9.75 -19.96875 Z M 8.609375 -14.6875 "/></g></g></g><g fill="#ffffff" fill-opacity="1"><g transform="translate(26.051399, 38.964706)"><g><path d="M 4.296875 -17.890625 L 8.8125 -17.890625 L 8.15625 -14.78125 L 8.21875 -14.78125 C 9.789062 -17.15625 11.613281 -18.34375 13.6875 -18.34375 C 14.082031 -18.34375 14.441406 -18.320312 14.765625 -18.28125 L 13.75 -13.5 C 13.4375 -13.550781 13.003906 -13.578125 12.453125 -13.578125 C 9.546875 -13.578125 7.789062 -12.15625 7.1875 -9.3125 L 5.203125 0 L 0.5 0 Z M 4.296875 -17.890625 "/></g></g></g><g fill="#ffffff" fill-opacity="1"><g transform="translate(38.980749, 38.964706)"><g><path d="M 2.390625 -12.09375 C 3.503906 -16.257812 6.570312 -18.34375 11.59375 -18.34375 C 13.550781 -18.34375 15.148438 -17.992188 16.390625 -17.296875 C 17.640625 -16.597656 18.265625 -15.625 18.265625 -14.375 C 18.265625 -14.082031 18.226562 -13.75 18.15625 -13.375 L 16 -3.109375 C 15.925781 -2.753906 15.890625 -2.335938 15.890625 -1.859375 C 15.890625 -1.203125 16.101562 -0.816406 16.53125 -0.703125 L 16.375 0 L 11.375 0 C 11.269531 -0.570312 11.253906 -1.273438 11.328125 -2.109375 C 9.597656 -0.390625 7.457031 0.46875 4.90625 0.46875 C 3.394531 0.46875 2.21875 0.09375 1.375 -0.65625 C 0.53125 -1.40625 0.109375 -2.488281 0.109375 -3.90625 C 0.109375 -5.625 0.695312 -7.054688 1.875 -8.203125 C 3.050781 -9.359375 4.566406 -10.066406 6.421875 -10.328125 L 11.4375 -11 C 12.78125 -11.175781 13.453125 -11.820312 13.453125 -12.9375 C 13.453125 -13.507812 13.21875 -13.9375 12.75 -14.21875 C 12.28125 -14.5 11.660156 -14.640625 10.890625 -14.640625 C 8.765625 -14.640625 7.453125 -13.789062 6.953125 -12.09375 Z M 12.59375 -8.671875 C 11.894531 -8.234375 10.421875 -7.863281 8.171875 -7.5625 C 6.035156 -7.28125 4.96875 -6.300781 4.96875 -4.625 C 4.96875 -4.070312 5.148438 -3.644531 5.515625 -3.34375 C 5.878906 -3.039062 6.390625 -2.890625 7.046875 -2.890625 C 8.148438 -2.890625 9.210938 -3.222656 10.234375 -3.890625 C 11.265625 -4.554688 11.875 -5.320312 12.0625 -6.1875 Z M 12.59375 -8.671875 "/></g></g></g><g fill="#ffffff" fill-opacity="1"><g transform="translate(58.177938, 38.964706)"><g><path d="M 16.65625 0 L 11.953125 0 L 14.3125 -11.109375 C 14.394531 -11.535156 14.4375 -11.925781 14.4375 -12.28125 C 14.4375 -12.988281 14.25 -13.515625 13.875 -13.859375 C 13.507812 -14.210938 12.945312 -14.390625 12.1875 -14.390625 C 11.019531 -14.390625 9.984375 -13.972656 9.078125 -13.140625 C 8.171875 -12.304688 7.554688 -11.117188 7.234375 -9.578125 L 5.203125 0 L 0.5 0 L 4.296875 -17.890625 L 8.8125 -17.890625 L 8.25 -15.265625 L 8.3125 -15.265625 C 10.125 -17.316406 12.160156 -18.34375 14.421875 -18.34375 C 15.984375 -18.34375 17.210938 -17.941406 18.109375 -17.140625 C 19.003906 -16.335938 19.453125 -15.234375 19.453125 -13.828125 C 19.453125 -13.390625 19.367188 -12.769531 19.203125 -11.96875 Z M 16.65625 0 "/></g></g></g><g fill="#ffffff" fill-opacity="1"><g transform="translate(78.687754, 38.964706)"><g><path d="M 16.78125 0 L 12.1875 0 L 12.671875 -2.25 L 12.609375 -2.25 C 11.117188 -0.4375 9.234375 0.46875 6.953125 0.46875 C 5.148438 0.46875 3.707031 -0.164062 2.625 -1.4375 C 1.539062 -2.707031 1 -4.421875 1 -6.578125 C 1 -9.660156 1.910156 -12.390625 3.734375 -14.765625 C 5.566406 -17.148438 7.820312 -18.34375 10.5 -18.34375 C 12.800781 -18.34375 14.410156 -17.382812 15.328125 -15.46875 L 15.390625 -15.46875 L 17.21875 -24.125 L 21.90625 -24.125 Z M 5.9375 -6.984375 C 5.9375 -5.898438 6.210938 -5.03125 6.765625 -4.375 C 7.328125 -3.726562 8.085938 -3.40625 9.046875 -3.40625 C 10.585938 -3.40625 11.847656 -4.125 12.828125 -5.5625 C 13.804688 -7.007812 14.296875 -8.609375 14.296875 -10.359375 C 14.296875 -11.660156 14.046875 -12.640625 13.546875 -13.296875 C 13.054688 -13.953125 12.3125 -14.28125 11.3125 -14.28125 C 9.726562 -14.28125 8.4375 -13.535156 7.4375 -12.046875 C 6.4375 -10.554688 5.9375 -8.867188 5.9375 -6.984375 Z M 5.9375 -6.984375 "/></g></g></g><g fill="#ffffff" fill-opacity="1"><g transform="translate(99.574958, 38.964706)"><g><path d="M 5.6875 0 L 0.65625 0 L 5.78125 -24.125 L 22.9375 -24.125 L 22.046875 -19.859375 L 9.90625 -19.859375 L 8.765625 -14.421875 L 19.375 -14.421875 L 18.46875 -10.140625 L 7.84375 -10.140625 Z M 5.6875 0 "/></g></g></g><g fill="#ffffff" fill-opacity="1"><g transform="translate(118.968938, 38.964706)"><g><path d="M 11.546875 -14.390625 C 9.890625 -14.390625 8.539062 -13.660156 7.5 -12.203125 C 6.457031 -10.742188 5.9375 -9.132812 5.9375 -7.375 C 5.9375 -6.238281 6.234375 -5.304688 6.828125 -4.578125 C 7.421875 -3.859375 8.25 -3.5 9.3125 -3.5 C 10.90625 -3.5 12.234375 -4.195312 13.296875 -5.59375 C 14.367188 -6.988281 14.90625 -8.597656 14.90625 -10.421875 C 14.90625 -11.585938 14.597656 -12.539062 13.984375 -13.28125 C 13.378906 -14.019531 12.566406 -14.390625 11.546875 -14.390625 Z M 12.125 -18.34375 C 14.425781 -18.34375 16.273438 -17.640625 17.671875 -16.234375 C 19.078125 -14.835938 19.78125 -13.082031 19.78125 -10.96875 C 19.78125 -7.757812 18.710938 -5.050781 16.578125 -2.84375 C 14.441406 -0.632812 11.789062 0.46875 8.625 0.46875 C 6.34375 0.46875 4.507812 -0.226562 3.125 -1.625 C 1.75 -3.03125 1.0625 -4.78125 1.0625 -6.875 C 1.0625 -10.039062 2.109375 -12.742188 4.203125 -14.984375 C 6.304688 -17.222656 8.945312 -18.34375 12.125 -18.34375 Z M 12.125 -18.34375 "/></g></g></g><g fill="#ffffff" fill-opacity="1"><g transform="translate(139.610018, 38.964706)"><g><path d="M 4.296875 -17.890625 L 8.8125 -17.890625 L 8.15625 -14.78125 L 8.21875 -14.78125 C 9.789062 -17.15625 11.613281 -18.34375 13.6875 -18.34375 C 14.082031 -18.34375 14.441406 -18.320312 14.765625 -18.28125 L 13.75 -13.5 C 13.4375 -13.550781 13.003906 -13.578125 12.453125 -13.578125 C 9.546875 -13.578125 7.789062 -12.15625 7.1875 -9.3125 L 5.203125 0 L 0.5 0 Z M 4.296875 -17.890625 "/></g></g></g><g fill="#ffffff" fill-opacity="1"><g transform="translate(152.539368, 38.964706)"><g><path d="M 13.53125 -11.484375 L 13.53125 -11.75 C 13.53125 -13.507812 12.675781 -14.390625 10.96875 -14.390625 C 9.445312 -14.390625 8.210938 -13.601562 7.265625 -12.03125 C 6.328125 -10.457031 5.859375 -8.726562 5.859375 -6.84375 C 5.859375 -5.757812 6.09375 -4.910156 6.5625 -4.296875 C 7.03125 -3.691406 7.6875 -3.390625 8.53125 -3.390625 C 10.257812 -3.390625 11.5625 -4.429688 12.4375 -6.515625 L 17.21875 -6.515625 C 15.488281 -1.828125 12.398438 0.515625 7.953125 0.515625 C 5.867188 0.515625 4.171875 -0.101562 2.859375 -1.34375 C 1.554688 -2.582031 0.90625 -4.191406 0.90625 -6.171875 C 0.90625 -9.335938 1.929688 -12.15625 3.984375 -14.625 C 6.046875 -17.101562 8.632812 -18.34375 11.75 -18.34375 C 13.632812 -18.34375 15.210938 -17.835938 16.484375 -16.828125 C 17.765625 -15.816406 18.40625 -14.472656 18.40625 -12.796875 C 18.40625 -12.390625 18.363281 -11.953125 18.28125 -11.484375 Z M 13.53125 -11.484375 "/></g></g></g><g fill="#ffffff" fill-opacity="1"><g transform="translate(171.293551, 38.964706)"><g><path d="M 17.390625 -5.234375 C 15.628906 -1.429688 12.503906 0.46875 8.015625 0.46875 C 5.898438 0.46875 4.179688 -0.128906 2.859375 -1.328125 C 1.546875 -2.523438 0.890625 -4.1875 0.890625 -6.3125 C 0.890625 -9.519531 1.914062 -12.328125 3.96875 -14.734375 C 6.03125 -17.140625 8.628906 -18.34375 11.765625 -18.34375 C 13.910156 -18.34375 15.597656 -17.710938 16.828125 -16.453125 C 18.054688 -15.191406 18.671875 -13.539062 18.671875 -11.5 C 18.671875 -10.320312 18.476562 -9.039062 18.09375 -7.65625 L 5.65625 -7.65625 C 5.625 -7.28125 5.609375 -6.984375 5.609375 -6.765625 C 5.609375 -4.453125 6.660156 -3.296875 8.765625 -3.296875 C 10.535156 -3.296875 11.796875 -3.941406 12.546875 -5.234375 Z M 13.890625 -10.71875 C 13.941406 -11.125 13.96875 -11.453125 13.96875 -11.703125 C 13.96875 -12.617188 13.71875 -13.304688 13.21875 -13.765625 C 12.726562 -14.234375 12.023438 -14.46875 11.109375 -14.46875 C 8.984375 -14.46875 7.410156 -13.21875 6.390625 -10.71875 Z M 13.890625 -10.71875 "/></g></g></g><g clip-path="url(#89e95b68e3)"><g fill="#ffffff" fill-opacity="1"><g transform="translate(2.358458, 65.836836)"><g><path d="M 3.921875 0 L -1.390625 0 L 12.328125 -24.125 L 18.15625 -24.125 L 21.53125 0 L 16.046875 0 L 15.5625 -4.96875 L 6.640625 -4.96875 Z M 8.875 -9.140625 L 15.03125 -9.140625 L 14.0625 -18.6875 L 14 -18.6875 Z M 8.875 -9.140625 "/></g></g></g></g><g fill="#ffffff" fill-opacity="1"><g transform="translate(26.100628, 65.836836)"><g><path d="M 5.6875 0 L 0.65625 0 L 5.78125 -24.125 L 10.8125 -24.125 Z M 5.6875 0 "/></g></g></g></g></g></svg>