<svg xmlns="http://www.w3.org/2000/svg" xmlns:xlink="http://www.w3.org/1999/xlink" width="500" zoomAndPan="magnify" viewBox="0 0 375 374.999991" height="500" preserveAspectRatio="xMidYMid meet" version="1.0"><defs><clipPath id="de6f530111"><path d="M 197 220 L 315 220 L 315 319 L 197 319 Z M 197 220 " clip-rule="nonzero"/></clipPath><clipPath id="62d5001a7d"><path d="M 22.132812 144.589844 L 230.316406 22.1875 L 352.71875 230.371094 L 144.535156 352.773438 Z M 22.132812 144.589844 " clip-rule="nonzero"/></clipPath><clipPath id="7603c333ec"><path d="M 22.132812 144.589844 L 230.316406 22.1875 L 352.71875 230.371094 L 144.535156 352.773438 Z M 22.132812 144.589844 " clip-rule="nonzero"/></clipPath><clipPath id="972dfc5f37"><path d="M 22.132812 144.589844 L 230.316406 22.1875 L 352.71875 230.371094 L 144.535156 352.773438 Z M 22.132812 144.589844 " clip-rule="nonzero"/></clipPath><clipPath id="a5ec64090f"><path d="M 163 219 L 269 219 L 269 316 L 163 316 Z M 163 219 " clip-rule="nonzero"/></clipPath><clipPath id="191b38eb8d"><path d="M 22.132812 144.589844 L 230.316406 22.1875 L 352.71875 230.371094 L 144.535156 352.773438 Z M 22.132812 144.589844 " clip-rule="nonzero"/></clipPath><clipPath id="6064487a3c"><path d="M 22.132812 144.589844 L 230.316406 22.1875 L 352.71875 230.371094 L 144.535156 352.773438 Z M 22.132812 144.589844 " clip-rule="nonzero"/></clipPath><clipPath id="a8a5c7821e"><path d="M 22.132812 144.589844 L 230.316406 22.1875 L 352.71875 230.371094 L 144.535156 352.773438 Z M 22.132812 144.589844 " clip-rule="nonzero"/></clipPath><clipPath id="88f91e4513"><path d="M 56 197 L 155 197 L 155 315 L 56 315 Z M 56 197 " clip-rule="nonzero"/></clipPath><clipPath id="2868b20755"><path d="M 22.132812 144.589844 L 230.316406 22.1875 L 352.71875 230.371094 L 144.535156 352.773438 Z M 22.132812 144.589844 " clip-rule="nonzero"/></clipPath><clipPath id="14cbf2ac85"><path d="M 22.132812 144.589844 L 230.316406 22.1875 L 352.71875 230.371094 L 144.535156 352.773438 Z M 22.132812 144.589844 " clip-rule="nonzero"/></clipPath><clipPath id="663a146187"><path d="M 22.132812 144.589844 L 230.316406 22.1875 L 352.71875 230.371094 L 144.535156 352.773438 Z M 22.132812 144.589844 " clip-rule="nonzero"/></clipPath><clipPath id="cb13ae7430"><path d="M 58 163 L 156 163 L 156 269 L 58 269 Z M 58 163 " clip-rule="nonzero"/></clipPath><clipPath id="ff73146281"><path d="M 22.132812 144.589844 L 230.316406 22.1875 L 352.71875 230.371094 L 144.535156 352.773438 Z M 22.132812 144.589844 " clip-rule="nonzero"/></clipPath><clipPath id="ec17e98767"><path d="M 22.132812 144.589844 L 230.316406 22.1875 L 352.71875 230.371094 L 144.535156 352.773438 Z M 22.132812 144.589844 " clip-rule="nonzero"/></clipPath><clipPath id="8fb260cc5d"><path d="M 22.132812 144.589844 L 230.316406 22.1875 L 352.71875 230.371094 L 144.535156 352.773438 Z M 22.132812 144.589844 " clip-rule="nonzero"/></clipPath><clipPath id="e289d66a22"><path d="M 60 56 L 178 56 L 178 155 L 60 155 Z M 60 56 " clip-rule="nonzero"/></clipPath><clipPath id="769e009066"><path d="M 22.132812 144.589844 L 230.316406 22.1875 L 352.71875 230.371094 L 144.535156 352.773438 Z M 22.132812 144.589844 " clip-rule="nonzero"/></clipPath><clipPath id="09b9007f1f"><path d="M 22.132812 144.589844 L 230.316406 22.1875 L 352.71875 230.371094 L 144.535156 352.773438 Z M 22.132812 144.589844 " clip-rule="nonzero"/></clipPath><clipPath id="b38f953bfd"><path d="M 22.132812 144.589844 L 230.316406 22.1875 L 352.71875 230.371094 L 144.535156 352.773438 Z M 22.132812 144.589844 " clip-rule="nonzero"/></clipPath><clipPath id="375cb09a03"><path d="M 106 59 L 212 59 L 212 156 L 106 156 Z M 106 59 " clip-rule="nonzero"/></clipPath><clipPath id="a85cfd83eb"><path d="M 22.132812 144.589844 L 230.316406 22.1875 L 352.71875 230.371094 L 144.535156 352.773438 Z M 22.132812 144.589844 " clip-rule="nonzero"/></clipPath><clipPath id="ca4c21a470"><path d="M 22.132812 144.589844 L 230.316406 22.1875 L 352.71875 230.371094 L 144.535156 352.773438 Z M 22.132812 144.589844 " clip-rule="nonzero"/></clipPath><clipPath id="9725a3fdf5"><path d="M 22.132812 144.589844 L 230.316406 22.1875 L 352.71875 230.371094 L 144.535156 352.773438 Z M 22.132812 144.589844 " clip-rule="nonzero"/></clipPath><clipPath id="7518f99a8b"><path d="M 220 60 L 319 60 L 319 178 L 220 178 Z M 220 60 " clip-rule="nonzero"/></clipPath><clipPath id="935aad8efe"><path d="M 22.132812 144.589844 L 230.316406 22.1875 L 352.71875 230.371094 L 144.535156 352.773438 Z M 22.132812 144.589844 " clip-rule="nonzero"/></clipPath><clipPath id="4ecae5df76"><path d="M 22.132812 144.589844 L 230.316406 22.1875 L 352.71875 230.371094 L 144.535156 352.773438 Z M 22.132812 144.589844 " clip-rule="nonzero"/></clipPath><clipPath id="8c7e9eedbd"><path d="M 22.132812 144.589844 L 230.316406 22.1875 L 352.71875 230.371094 L 144.535156 352.773438 Z M 22.132812 144.589844 " clip-rule="nonzero"/></clipPath><clipPath id="ab0ed9abe6"><path d="M 219 106 L 316 106 L 316 212 L 219 212 Z M 219 106 " clip-rule="nonzero"/></clipPath><clipPath id="4f5ef24a20"><path d="M 22.132812 144.589844 L 230.316406 22.1875 L 352.71875 230.371094 L 144.535156 352.773438 Z M 22.132812 144.589844 " clip-rule="nonzero"/></clipPath><clipPath id="00854b04f7"><path d="M 22.132812 144.589844 L 230.316406 22.1875 L 352.71875 230.371094 L 144.535156 352.773438 Z M 22.132812 144.589844 " clip-rule="nonzero"/></clipPath><clipPath id="27529569fb"><path d="M 22.132812 144.589844 L 230.316406 22.1875 L 352.71875 230.371094 L 144.535156 352.773438 Z M 22.132812 144.589844 " clip-rule="nonzero"/></clipPath></defs><g clip-path="url(#de6f530111)"><g clip-path="url(#62d5001a7d)"><g clip-path="url(#7603c333ec)"><g clip-path="url(#972dfc5f37)"><path fill="#8a3aff" d="M 314.566406 220.4375 L 288.84375 220.113281 L 197.3125 318.402344 L 202.484375 318.59375 L 308.691406 256.289062 Z M 314.566406 220.4375 " fill-opacity="1" fill-rule="nonzero"/></g></g></g></g><g clip-path="url(#a5ec64090f)"><g clip-path="url(#191b38eb8d)"><g clip-path="url(#6064487a3c)"><g clip-path="url(#a8a5c7821e)"><path fill="#8a3aff" d="M 268.523438 219.898438 L 226.304688 219.414062 L 163.449219 285.691406 L 163.117188 314.601562 L 190.519531 315.9375 L 200.101562 305.488281 L 198.882812 269.96875 Z M 268.523438 219.898438 " fill-opacity="1" fill-rule="nonzero"/></g></g></g></g><g clip-path="url(#88f91e4513)"><g clip-path="url(#2868b20755)"><g clip-path="url(#14cbf2ac85)"><g clip-path="url(#663a146187)"><path fill="#8a3aff" d="M 154.484375 314.609375 L 154.808594 288.886719 L 56.519531 197.355469 L 56.335938 202.523438 L 118.640625 308.730469 Z M 154.484375 314.609375 " fill-opacity="1" fill-rule="nonzero"/></g></g></g></g><g clip-path="url(#cb13ae7430)"><g clip-path="url(#ff73146281)"><g clip-path="url(#ec17e98767)"><g clip-path="url(#8fb260cc5d)"><path fill="#8a3aff" d="M 155.03125 268.5625 L 155.515625 226.34375 L 89.238281 163.492188 L 60.324219 163.160156 L 58.992188 190.558594 L 69.441406 200.140625 L 104.953125 198.925781 Z M 155.03125 268.5625 " fill-opacity="1" fill-rule="nonzero"/></g></g></g></g><g clip-path="url(#e289d66a22)"><g clip-path="url(#769e009066)"><g clip-path="url(#09b9007f1f)"><g clip-path="url(#b38f953bfd)"><path fill="#8a3aff" d="M 60.320312 154.527344 L 86.035156 154.851562 L 177.566406 56.5625 L 172.40625 56.375 L 66.199219 118.679688 Z M 60.320312 154.527344 " fill-opacity="1" fill-rule="nonzero"/></g></g></g></g><g clip-path="url(#375cb09a03)"><g clip-path="url(#a85cfd83eb)"><g clip-path="url(#ca4c21a470)"><g clip-path="url(#9725a3fdf5)"><path fill="#8a3aff" d="M 106.367188 155.070312 L 148.585938 155.554688 L 211.433594 89.28125 L 211.765625 60.363281 L 184.371094 59.03125 L 174.78125 69.484375 L 175.996094 104.996094 Z M 106.367188 155.070312 " fill-opacity="1" fill-rule="nonzero"/></g></g></g></g><g clip-path="url(#7518f99a8b)"><g clip-path="url(#935aad8efe)"><g clip-path="url(#4ecae5df76)"><g clip-path="url(#8c7e9eedbd)"><path fill="#8a3aff" d="M 220.398438 60.363281 L 220.070312 86.078125 L 318.359375 177.609375 L 318.550781 172.445312 L 256.25 66.238281 Z M 220.398438 60.363281 " fill-opacity="1" fill-rule="nonzero"/></g></g></g></g><g clip-path="url(#ab0ed9abe6)"><g clip-path="url(#4f5ef24a20)"><g clip-path="url(#00854b04f7)"><g clip-path="url(#27529569fb)"><path fill="#8a3aff" d="M 219.851562 106.410156 L 219.367188 148.628906 L 285.640625 211.476562 L 314.5625 211.808594 L 315.898438 184.410156 L 305.445312 174.820312 L 269.925781 176.039062 Z M 219.851562 106.410156 " fill-opacity="1" fill-rule="nonzero"/></g></g></g></g></svg>